<?xml version="1.0" standalone="no"?>
<!DOCTYPE svg PUBLIC "-//W3C//DTD SVG 20010904//EN"
 "http://www.w3.org/TR/2001/REC-SVG-20010904/DTD/svg10.dtd">
<svg version="1.0" xmlns="http://www.w3.org/2000/svg"
 width="300.000000pt" height="300.000000pt" viewBox="0 0 300.000000 300.000000"
 preserveAspectRatio="xMidYMid meet">

<g transform="translate(0.000000,300.000000) scale(0.100000,-0.100000)"
fill="#000000" stroke="none">
<path d="M1015 2636 c-39 -17 -79 -55 -102 -97 -17 -32 -18 -84 -21 -1046 -2
-995 -2 -1014 17 -1052 24 -47 61 -77 110 -92 50 -15 853 -7 900 9 40 14 76
45 99 87 15 27 17 121 20 1028 2 717 -1 1010 -9 1040 -16 60 -74 112 -139 126
-78 17 -836 14 -875 -3z m595 -116 l0 -30 -150 0 -150 0 0 24 c0 28 15 31 198
34 l102 2 0 -30z m-553 4 c3 -8 1 -20 -5 -26 -15 -15 -43 8 -35 28 7 19 32 18
40 -2z m873 -968 l0 -835 -52 -5 c-29 -3 -241 -7 -470 -9 l-418 -3 0 843 0
843 470 0 470 0 0 -834z m-387 -956 c53 -59 28 -159 -46 -178 -92 -25 -172 64
-136 149 30 74 128 89 182 29z"/>
</g>
</svg>
